REM COMMENT lûd cue v1
REM MUSICBRAINZ_ALBUM_ID c84d5361-750b-3d42-887c-13e315cd85f1
REM LUD_DURATION_IN_SECONDS 2420.824000
CATALOG 077778622420
TITLE "MCMXC a.D."
PERFORMER "Enigma"
FILE "disc1.m4a" WAVE
  TRACK 01 AUDIO
    TITLE "The Voice of Enigma"
    PERFORMER "Enigma"
    ISRC DEG129000051
    INDEX 01 0:00:00
  TRACK 02 AUDIO
    TITLE "Principles of Lust: Sadeness / Find Love / Sadeness (reprise)"
    PERFORMER "Enigma"
    ISRC DEG129000052
    INDEX 01 2:21:60
    INDEX 02 6:30:55
    INDEX 03 11:16:07
  TRACK 03 AUDIO
    TITLE "Callas Went Away"
    PERFORMER "Enigma"
    ISRC DEG129000053
    INDEX 01 14:05:55
  TRACK 04 AUDIO
    TITLE "Mea Culpa"
    PERFORMER "Enigma"
    ISRC DEG129000054
    INDEX 01 18:33:45
  TRACK 05 AUDIO
    TITLE "The Voice & The Snake"
    PERFORMER "Enigma"
    ISRC DEG129000055
    INDEX 01 23:37:02
  TRACK 06 AUDIO
    TITLE "Knocking on Forbidden Doors"
    PERFORMER "Enigma"
    ISRC DEG129000056
    INDEX 01 25:17:00
  TRACK 07 AUDIO
    TITLE "Back to the Rivers of Belief: Way to Eternity / Hallelujah / The Rivers of Belief"
    PERFORMER "Enigma"
    ISRC DEG129000057
    INDEX 01 29:48:37
    INDEX 02 32:09:40
    INDEX 03 36:15:00
